<?xml version="1.0" standalone="no"?>
<!DOCTYPE svg PUBLIC "-//W3C//DTD SVG 20010904//EN"
 "http://www.w3.org/TR/2001/REC-SVG-20010904/DTD/svg10.dtd">
<svg version="1.0" xmlns="http://www.w3.org/2000/svg"
 width="1024.000000pt" height="1024.000000pt" viewBox="0 0 1024.000000 1024.000000"
 preserveAspectRatio="xMidYMid meet">

<g transform="translate(0.000000,1024.000000) scale(0.100000,-0.100000)"
fill="#000000" stroke="none">
<path d="M0 5120 l0 -5120 5120 0 5120 0 0 5120 0 5120 -5120 0 -5120 0 0
-5120z m5201 3111 c46 -16 111 -43 144 -59 l60 -30 -32 -18 -32 -19 37 -12
c29 -10 31 -11 7 -7 l-30 5 34 -25 c19 -14 39 -27 45 -29 6 -2 8 -8 4 -12 -6
-6 -75 28 -258 128 -30 16 -60 34 -67 39 -14 11 -70 -16 -213 -101 -58 -35
-118 -71 -135 -81 -16 -9 -82 -51 -145 -92 -63 -41 -131 -83 -150 -93 -19 -9
-57 -35 -83 -57 -27 -22 -50 -38 -53 -35 -6 6 36 179 47 193 11 14 191 125
254 157 127 64 417 175 461 176 11 1 58 -12 105 -28z m296 -237 c-3 -3 -12 -4
-19 -1 -8 3 -5 6 6 6 11 1 17 -2 13 -5z m38 -24 c7 0 18 -7 25 -15 10 -12 7
-12 -19 1 -17 9 -31 21 -30 27 0 8 2 8 6 0 2 -7 10 -13 18 -13z m-270 -107
c79 -49 154 -96 165 -105 11 -10 20 -15 20 -12 0 4 7 1 15 -6 8 -7 12 -17 9
-22 -7 -10 36 -45 49 -40 5 1 6 -2 2 -8 -3 -5 -3 -10 2 -10 10 0 79 -60 69
-60 -3 0 -23 10 -44 23 -129 81 -271 157 -294 157 -14 0 21 -30 166 -144 56
-43 103 -83 105 -89 2 -6 -2 -7 -9 -2 -17 10 -10 -1 52 -86 26 -37 48 -70 48
-73 0 -4 -11 -4 -25 -2 -34 6 -54 -31 -37 -69 16 -35 16 -35 -13 -35 -28 0
-29 -3 -16 -28 6 -9 19 -57 31 -105 18 -75 20 -104 14 -195 -7 -121 -16 -146
-42 -133 -9 5 -51 26 -92 46 -41 20 -82 43 -90 50 -27 24 -161 86 -171 80 -5
-4 -8 -1 -7 6 2 7 -5 15 -14 17 -30 6 -20 -22 15 -42 121 -71 172 -96 189 -90
12 3 17 1 16 -7 -2 -6 17 -24 42 -39 25 -15 96 -59 158 -96 62 -38 112 -73
110 -79 -2 -5 -9 -8 -17 -7 -7 2 -10 -1 -6 -7 3 -6 1 -11 -5 -11 -14 0 -329
158 -451 227 l-96 53 -114 -60 c-129 -69 -435 -221 -491 -244 -35 -14 -39 -14
-48 4 -7 13 -6 19 5 23 9 4 12 1 8 -9 -3 -7 -1 -14 5 -14 12 0 24 29 17 40 -3
5 41 32 97 61 157 78 379 209 373 220 -4 5 2 6 11 2 12 -4 15 -3 10 6 -5 8 -2
11 9 9 11 -2 19 4 20 15 2 9 0 16 -3 14 -4 -2 -50 -23 -102 -48 -52 -24 -159
-77 -237 -116 -78 -40 -146 -73 -152 -73 -39 0 -164 193 -166 258 -1 26 20 29
34 5 6 -10 11 -13 11 -8 1 6 5 1 10 -10 7 -18 9 -18 20 10 6 17 9 47 6 67 -7
45 39 180 87 254 67 102 69 107 56 99 -29 -17 -149 -118 -149 -125 0 -9 -31
-22 -37 -16 -9 9 50 76 121 138 100 87 143 122 284 232 68 53 118 96 110 96
-30 0 -282 -153 -506 -307 l-114 -78 7 -70 c4 -38 17 -134 31 -213 13 -79 24
-167 24 -195 -1 -49 -1 -51 -14 -27 -26 49 -82 298 -101 450 -4 30 -11 57 -16
60 -10 7 217 173 417 305 120 79 455 275 471 275 7 0 78 -39 158 -87z m-2458
-134 c210 -108 364 -199 357 -210 -3 -6 0 -16 6 -24 10 -12 10 -15 0 -15 -12
0 -347 166 -367 182 -22 18 -15 1 53 -117 63 -111 69 -117 157 -182 81 -58
283 -217 297 -233 3 -3 39 -32 80 -65 41 -32 77 -62 80 -65 3 -3 29 -25 59
-48 53 -41 135 -114 236 -206 27 -25 44 -46 37 -46 -6 0 -12 5 -12 10 0 6 -7
10 -15 10 -8 0 -15 3 -15 8 0 4 -17 18 -37 32 -20 14 -41 30 -47 35 -6 6 -29
24 -51 40 -22 17 -110 84 -195 151 -195 152 -372 284 -477 358 -68 47 -90 70
-132 136 -48 74 -181 313 -181 325 0 9 6 6 167 -76z m4681 -111 c-60 -101
-114 -188 -120 -195 -5 -6 -62 -49 -126 -95 -130 -92 -401 -299 -590 -450 -67
-54 -125 -98 -127 -98 -3 0 0 9 7 19 7 11 16 17 20 15 4 -3 8 3 8 13 0 10 33
46 76 83 42 36 81 70 87 75 36 32 369 294 467 367 113 84 117 87 183 198 37
62 66 114 65 115 -2 2 -64 -27 -138 -64 -263 -130 -323 -157 -328 -143 -3 9
-9 8 -25 -3 -12 -8 -28 -15 -37 -15 -9 0 -5 6 10 13 14 8 57 34 95 59 125 81
535 287 571 288 7 0 -38 -82 -98 -182z m-5234 -178 c216 -38 463 -111 514
-153 19 -15 8 -19 -22 -7 -26 9 -27 9 -24 -17 2 -20 13 -33 40 -48 21 -11 38
-23 38 -26 0 -4 -109 29 -242 73 -132 43 -245 77 -250 76 -10 -4 49 -94 212
-323 59 -82 116 -163 126 -180 81 -130 110 -160 208 -210 53 -27 94 -51 92
-53 -2 -2 -48 14 -103 36 -189 77 -185 75 -227 138 -21 33 -105 151 -186 264
-133 186 -286 406 -304 438 -9 16 -4 16 128 -8z m5836 14 c0 -3 -13 -22 -28
-42 -60 -78 -477 -665 -499 -703 -11 -18 -49 -40 -132 -76 -64 -28 -142 -63
-173 -77 -32 -14 -58 -22 -58 -18 0 4 12 13 28 19 15 7 72 36 127 66 107 58
118 69 209 213 43 67 152 223 309 440 20 28 37 54 37 57 0 8 -30 0 -217 -59
-94 -30 -179 -53 -190 -53 -16 1 -16 2 0 6 9 2 17 11 17 18 0 7 3 21 7 30 5
14 2 16 -17 10 -12 -4 -28 -8 -34 -10 -6 -1 -19 -5 -29 -10 -10 -4 -21 -5 -24
-1 -11 10 179 93 277 120 52 14 156 37 230 50 152 27 160 28 160 20z m-5242
-220 c-6 -6 -58 20 -58 29 0 4 14 0 31 -8 17 -9 29 -18 27 -21z m2727 5 c-6
-16 -9 -18 -16 -8 -4 8 -3 19 3 26 15 18 21 9 13 -18z m1892 -35 c-3 -3 -12
-4 -19 -1 -8 3 -5 6 6 6 11 1 17 -2 13 -5z m-4617 -34 c8 -5 11 -10 5 -10 -5
0 -17 5 -25 10 -8 5 -10 10 -5 10 6 0 17 -5 25 -10z m2778 -62 c39 -64 71
-315 42 -333 -5 -3 -24 1 -42 8 l-33 14 2 154 c2 194 2 189 7 189 2 0 13 -15
24 -32z m-1552 -180 l94 -82 0 -68 c0 -37 -2 -68 -5 -68 -3 0 -29 16 -57 35
-29 19 -53 33 -55 31 -2 -2 3 -16 11 -31 8 -16 19 -49 25 -74 20 -91 41 -208
41 -229 0 -11 12 -29 28 -40 152 -106 452 -321 479 -345 33 -29 34 -33 28 -74
-4 -28 -2 -49 5 -58 10 -12 24 -4 83 47 40 33 97 84 127 112 30 29 96 87 145
130 50 44 117 105 151 137 44 43 64 55 75 48 11 -7 12 -9 0 -9 -25 0 -191
-182 -219 -240 -21 -44 -27 -51 -30 -32 -2 12 -7 22 -11 22 -11 0 -251 -220
-251 -231 0 -5 12 -33 26 -62 l26 -53 -35 -39 -35 -38 -64 54 c-34 30 -84 71
-109 92 -26 20 -75 77 -110 128 -150 214 -280 371 -295 357 -3 -3 19 -48 49
-99 131 -229 147 -263 147 -318 0 -63 -22 -109 -56 -117 -37 -9 -47 7 -28 44
8 18 18 56 20 84 l5 53 -111 149 c-60 83 -122 169 -136 194 -39 67 -77 261
-78 402 -1 113 11 270 21 270 2 0 47 -37 99 -82z m2148 -178 c1 -194 -12 -303
-44 -377 -21 -47 -160 -248 -226 -325 -51 -60 -55 -89 -24 -170 11 -29 20 -54
20 -55 0 -2 -14 -3 -30 -3 -34 0 -46 21 -57 95 -6 48 2 68 85 215 77 136 124
231 117 238 -8 9 -78 -62 -152 -153 -35 -44 -71 -88 -79 -98 -8 -9 -14 -20
-14 -23 0 -7 -136 -191 -155 -209 -24 -24 -95 -76 -95 -69 0 4 7 12 16 19 9 6
18 24 19 40 2 15 10 32 17 36 11 7 11 9 0 9 -7 0 -11 4 -7 9 3 5 1 12 -5 16
-5 3 -10 -2 -10 -12 0 -15 -2 -16 -10 -3 -7 12 -10 12 -10 1 0 -8 -6 -11 -15
-7 -11 4 -20 -3 -28 -22 -12 -28 -31 -52 -41 -52 -13 0 -4 25 29 83 20 34 46
80 58 102 24 41 150 143 337 271 154 105 143 89 174 249 15 77 36 160 47 184
11 24 17 46 15 48 -5 6 -53 -24 -83 -51 -13 -10 -25 -18 -27 -15 -2 2 -6 25
-7 52 -3 54 5 66 106 154 58 51 60 51 69 30 6 -12 10 -105 10 -207z m-1118
-76 c8 -33 -2 -132 -15 -147 -5 -7 -42 -30 -80 -52 -39 -22 -71 -45 -71 -52 0
-6 12 -39 26 -72 22 -50 24 -64 14 -76 -7 -9 -17 -14 -22 -13 -6 2 -29 39 -51
83 -23 43 -46 78 -52 78 -5 0 -14 -10 -20 -22 -5 -11 -15 -21 -21 -21 -7 0
-43 21 -80 47 -38 25 -70 47 -71 47 -1 1 19 3 45 4 26 1 48 6 50 11 2 6 10 7
18 4 8 -3 14 1 14 8 0 12 54 49 121 84 10 5 19 13 19 17 0 5 11 8 25 8 14 0
25 5 25 10 0 6 7 10 15 10 7 0 18 6 22 13 4 6 20 18 36 26 15 8 27 18 27 23 0
19 20 6 26 -18z m-116 -4 c-8 -5 -19 -10 -25 -10 -5 0 -3 5 5 10 8 5 20 10 25
10 6 0 3 -5 -5 -10z m-50 -27 c-8 -3 -18 -11 -22 -17 -4 -6 -10 -7 -15 -3 -9
10 16 27 37 26 13 -1 13 -1 0 -6z m-2563 -83 c2 0 3 -4 3 -10 0 -5 -6 -8 -12
-5 -7 2 -46 6 -87 10 l-75 7 50 -59 c119 -141 385 -441 420 -475 31 -29 245
-168 259 -168 6 0 376 -230 406 -252 61 -45 15 -27 -123 50 -505 280 -565 315
-616 365 -85 82 -532 595 -532 610 0 3 68 -13 152 -34 83 -22 153 -39 155 -39z
m5763 62 c0 -11 -281 -342 -422 -498 -62 -68 -129 -135 -148 -148 -74 -51
-505 -289 -485 -269 12 12 112 79 310 205 83 53 161 109 174 125 13 15 101
116 195 223 184 209 246 283 246 294 0 12 -77 6 -145 -13 -38 -11 -72 -18 -74
-15 -11 10 103 48 213 71 66 14 123 27 125 29 7 6 11 5 11 -4z m-3270 -12 c0
-5 -2 -10 -4 -10 -3 0 -8 5 -11 10 -3 6 -1 10 4 10 6 0 11 -4 11 -10z m-35
-20 c-3 -5 -11 -10 -16 -10 -6 0 -7 5 -4 10 3 6 11 10 16 10 6 0 7 -4 4 -10z
m-479 -101 c160 -72 219 -133 228 -233 l4 -55 -106 71 c-187 125 -215 148
-201 164 7 8 9 29 6 49 -3 19 -4 35 -3 35 2 0 34 -14 72 -31z m827 -471 c-3
-24 -16 -74 -29 -113 l-23 -70 6 80 c7 101 6 96 23 123 22 33 29 27 23 -20z
m-1074 -51 c12 -43 37 -109 56 -147 35 -69 149 -253 211 -340 40 -57 72 -121
118 -240 31 -80 43 -100 79 -127 23 -18 87 -74 142 -124 55 -51 164 -150 243
-221 l142 -129 167 148 c91 81 221 197 289 256 130 113 138 123 178 231 28 75
45 104 171 306 105 169 155 263 180 340 10 30 20 50 22 44 10 -30 -112 -318
-129 -308 -6 4 -7 -2 -3 -15 4 -15 3 -19 -7 -16 -7 3 -21 -9 -32 -27 -77 -133
-113 -202 -156 -303 -50 -115 -63 -156 -34 -102 9 16 18 26 21 24 3 -3 -12
-38 -33 -77 -34 -65 -59 -91 -253 -268 -119 -108 -255 -235 -303 -281 l-88
-84 -107 99 c-59 55 -197 185 -307 289 l-199 190 -158 320 c-176 359 -227 485
-236 583 -3 37 -3 65 -1 62 3 -3 15 -40 27 -83z m930 -64 c-2 -10 5 -34 13
-54 11 -25 17 -77 19 -167 l4 -131 -24 22 c-28 26 -152 177 -158 193 -3 9 133
153 145 154 2 0 2 -8 1 -17z m528 -15 c-3 -8 -6 -5 -6 6 -1 11 2 17 5 13 3 -3
4 -12 1 -19z m-86 -71 c-10 -9 -11 -8 -5 6 3 10 9 15 12 12 3 -3 0 -11 -7 -18z
m-3066 -15 c-3 -3 -11 0 -18 7 -9 10 -8 11 6 5 10 -3 15 -9 12 -12z m2259 -91
c34 -35 27 -52 -12 -31 -28 16 -112 114 -112 131 0 12 78 -51 124 -100z
m-2194 57 c0 -5 -11 -1 -25 8 -14 9 -25 18 -25 20 0 2 11 -2 25 -8 14 -6 25
-15 25 -20z m45 -18 c8 -13 -5 -13 -25 0 -13 8 -13 10 2 10 9 0 20 -4 23 -10z
m3055 -10 c0 -5 -5 -10 -11 -10 -5 0 -7 5 -4 10 3 6 8 10 11 10 2 0 4 -4 4
-10z m-3004 -26 c18 -14 18 -14 -6 -3 -31 14 -36 19 -24 19 6 0 19 -7 30 -16z
m1910 -36 c14 -28 28 -62 30 -76 3 -14 10 -33 15 -41 8 -12 9 -8 6 16 -2 22 0
30 7 24 67 -50 230 -180 301 -240 50 -42 127 -107 173 -144 95 -78 68 -82 207
31 43 35 84 61 91 58 8 -3 13 0 11 7 -1 7 5 12 13 12 8 0 18 4 22 10 4 5 10 6
14 2 4 -4 -49 -61 -118 -128 l-126 -120 -7 -97 c-3 -53 -11 -124 -17 -157 -6
-33 -12 -69 -13 -80 -1 -11 -4 -19 -6 -19 -2 1 -47 46 -99 100 -135 141 -216
219 -285 272 -92 73 -120 105 -132 153 -28 115 -45 176 -53 194 -9 20 -70 252
-70 267 0 19 11 5 36 -44z m-1851 2 c3 -6 -1 -7 -9 -4 -18 7 -21 14 -7 14 6 0
13 -4 16 -10z m49 -25 c11 -8 15 -15 10 -15 -6 0 -19 7 -30 15 -10 8 -14 14
-9 14 6 0 19 -6 29 -14z m5385 -31 c-13 -14 -44 -40 -69 -57 -25 -17 -50 -36
-56 -42 -25 -22 -54 -45 -59 -45 -14 0 -2 18 20 30 29 16 34 40 6 33 -10 -3
-22 1 -26 8 -6 9 -2 11 13 7 12 -4 22 -2 22 3 0 11 -14 11 -68 -1 -50 -12
-102 -47 -102 -69 0 -9 -16 -29 -35 -44 -19 -15 -35 -23 -35 -18 0 6 8 14 18
20 16 9 16 10 -1 17 -10 3 -41 3 -68 0 -68 -9 -382 -104 -489 -148 -47 -19
-94 -37 -105 -40 -17 -5 -81 -28 -200 -73 -17 -6 -17 -5 3 9 12 10 20 22 17
27 -3 5 0 6 8 3 8 -3 17 2 20 10 4 10 1 16 -9 16 -8 0 -12 5 -9 10 9 15 -8 12
-33 -6 -13 -9 -26 -13 -29 -10 -4 3 -4 7 -2 9 2 2 23 15 47 30 40 26 61 38
159 93 22 13 79 46 125 74 45 27 87 50 92 50 5 0 17 7 27 16 15 13 89 29 89
18 0 -2 -32 -22 -71 -46 -40 -23 -67 -44 -61 -46 23 -7 690 134 812 173 15 5
20 3 16 -3 -3 -6 -31 -16 -61 -23 -30 -7 -55 -16 -55 -20 0 -4 8 -5 19 -2 10
3 22 0 25 -6 4 -5 14 -7 24 -4 14 6 13 8 -8 14 -23 7 -23 7 6 8 20 1 41 10 55
26 13 13 30 25 38 25 10 0 7 -8 -10 -26z m-5299 -24 c8 -5 11 -10 5 -10 -5 0
-17 5 -25 10 -8 5 -10 10 -5 10 6 0 17 -5 25 -10z m4600 -24 c0 -3 -4 -8 -10
-11 -5 -3 -10 -1 -10 4 0 6 5 11 10 11 6 0 10 -2 10 -4z m-4387 -63 c-5 -12
-1 -14 17 -8 17 5 21 4 15 -5 -5 -8 -4 -11 3 -6 6 3 28 -3 49 -15 88 -49 208
-123 211 -131 2 -4 10 -8 17 -8 8 0 30 -10 48 -22 19 -13 43 -28 53 -34 17
-10 16 -11 -8 -11 -15 0 -26 3 -23 6 7 12 -55 43 -75 38 -11 -3 -25 1 -31 9
-9 11 -15 11 -25 3 -8 -6 -11 -15 -8 -21 3 -5 11 -5 19 2 9 8 14 3 18 -20 4
-18 13 -30 22 -30 8 0 15 -4 15 -10 0 -13 -27 -13 -35 -1 -3 5 -20 13 -38 17
-17 3 -45 12 -62 20 -58 24 -327 107 -467 143 -126 32 -141 38 -144 59 -4 21
-1 22 44 18 26 -3 83 -8 127 -11 44 -4 129 -15 190 -26 161 -28 187 -23 83 15
-43 16 -64 36 -38 36 5 0 6 8 3 18 -6 15 -5 15 10 4 8 -8 13 -20 10 -29z
m4872 27 c3 -5 1 -10 -4 -10 -6 0 -11 5 -11 10 0 6 2 10 4 10 3 0 8 -4 11 -10z
m-38 -26 c-3 -3 -12 -4 -19 -1 -8 3 -5 6 6 6 11 1 17 -2 13 -5z m42 -56 c-8
-7 -34 -29 -58 -48 -25 -19 -54 -44 -65 -55 -12 -11 -43 -38 -70 -60 -27 -22
-72 -60 -99 -85 -27 -25 -59 -51 -71 -59 -12 -8 -23 -17 -26 -20 -3 -3 -14
-13 -24 -21 -18 -14 -18 -14 -7 5 7 11 34 36 59 55 26 19 63 52 84 73 21 20
40 37 43 37 3 0 16 9 28 21 83 78 209 179 216 173 2 -2 -3 -9 -10 -16z m-2826
-78 c26 -23 46 -45 43 -47 -6 -6 -124 89 -125 100 -1 13 31 -8 82 -53z m2617
23 c-14 -9 -28 -21 -32 -27 -4 -6 -10 -7 -14 -3 -9 8 36 46 56 47 9 0 5 -7
-10 -17z m-78 -53 c-12 -11 -25 -20 -29 -20 -9 1 36 40 45 40 3 0 -4 -9 -16
-20z m-62 -44 c0 -3 -4 -8 -10 -11 -5 -3 -10 -1 -10 4 0 6 5 11 10 11 6 0 10
-2 10 -4z m-329 -83 c-32 -43 -72 -104 -90 -135 -18 -32 -34 -58 -36 -58 -2 0
-3 16 -2 35 1 19 4 29 8 23 5 -8 12 -2 20 18 7 16 19 37 27 47 18 21 0 23 -22
2 -8 -8 -19 -15 -25 -15 -6 0 -11 -5 -11 -11 0 -5 -4 -7 -10 -4 -5 3 -10 2
-10 -4 0 -12 -57 -98 -71 -106 -5 -4 -9 -4 -9 -2 0 9 65 121 103 177 33 50 43
57 109 81 40 15 74 27 75 28 1 1 -24 -34 -56 -76z m-4179 60 c-10 -4 -10 -8
-1 -19 7 -8 7 -14 1 -14 -12 0 -23 26 -15 34 4 3 11 6 17 5 6 0 5 -3 -2 -6z
m4465 -20 c-15 -16 -17 -16 -17 -1 0 9 6 18 13 21 20 7 22 -2 4 -20z m-36 -17
c-9 -10 -8 -15 4 -20 8 -3 15 -12 15 -21 0 -8 7 -15 16 -15 8 0 12 -5 9 -11
-4 -6 -13 -8 -21 -5 -8 3 -14 0 -14 -6 0 -9 -3 -9 -12 0 -8 8 -8 15 3 28 12
16 12 17 -4 11 -11 -4 -16 -3 -12 3 3 6 -2 10 -12 10 -15 0 -14 4 7 20 30 23
37 25 21 6z m69 -15 c-11 -21 -30 -29 -30 -12 0 12 31 43 37 37 3 -2 0 -14 -7
-25z m-4155 -1 c8 -13 -5 -13 -25 0 -13 8 -13 10 2 10 9 0 20 -4 23 -10z
m4032 -48 c-10 -2 -17 -11 -18 -20 0 -11 -2 -12 -6 -4 -2 6 -12 12 -21 13 -10
1 -7 4 8 8 14 4 24 14 22 21 -2 11 0 10 14 -1 16 -13 16 -14 1 -17z m-407 -6
c0 -2 -7 -6 -15 -10 -8 -3 -15 -1 -15 4 0 6 7 10 15 10 8 0 15 -2 15 -4z m450
-30 c0 -11 -19 -15 -25 -6 -3 5 1 10 9 10 9 0 16 -2 16 -4z m-480 -40 c0 -3
-4 -8 -10 -11 -5 -3 -10 -1 -10 4 0 6 5 11 10 11 6 0 10 -2 10 -4z m240 -20
c0 -3 -4 -8 -10 -11 -5 -3 -10 -1 -10 4 0 6 5 11 10 11 6 0 10 -2 10 -4z m240
0 c0 -2 -8 -10 -17 -17 -16 -13 -17 -12 -4 4 13 16 21 21 21 13z m-299 -64
c-5 -10 -18 -25 -27 -33 -16 -12 -17 -12 -9 1 10 18 37 50 42 50 2 0 -1 -8 -6
-18z m-76 -12 c-3 -5 -11 -10 -16 -10 -6 0 -7 5 -4 10 3 6 11 10 16 10 6 0 7
-4 4 -10z m-95 -20 c0 -5 -5 -10 -11 -10 -5 0 -7 5 -4 10 3 6 8 10 11 10 2 0
4 -4 4 -10z m-3000 -8 c0 -5 -9 -18 -20 -30 -12 -12 -17 -28 -13 -37 5 -13 7
-14 14 -3 9 13 9 13 13 -32 1 -8 7 -14 14 -12 7 1 12 -5 12 -13 0 -16 -43 -90
-66 -112 -9 -10 -10 -22 -3 -45 11 -40 11 -38 -1 -38 -5 0 -10 7 -10 17 0 9
-3 13 -7 10 -10 -10 18 -87 30 -80 5 3 6 -3 3 -15 -4 -11 -2 -23 4 -27 6 -4
23 -25 37 -48 14 -23 32 -46 39 -50 8 -4 14 -14 14 -22 0 -8 8 -24 18 -36 57
-71 109 -126 131 -140 14 -9 46 -35 70 -58 24 -22 46 -39 49 -37 2 3 -10 25
-28 51 -48 70 -109 218 -67 164 17 -22 67 -53 67 -42 0 5 -25 38 -55 73 -81
94 -175 299 -175 380 0 38 28 90 49 90 12 0 22 -16 35 -57 10 -32 29 -76 42
-98 32 -54 404 -431 479 -486 90 -65 154 -128 176 -173 23 -48 23 -50 4 -42
-12 4 -13 2 -5 -13 7 -14 6 -21 -3 -24 -7 -4 6 -22 36 -49 26 -24 47 -47 47
-52 0 -5 -44 35 -97 88 -86 86 -268 236 -286 236 -3 0 35 -39 85 -87 152 -146
258 -294 161 -225 -16 11 -75 69 -133 128 -127 132 -207 204 -226 204 -7 0 19
-33 59 -72 40 -40 94 -104 119 -143 25 -38 58 -83 72 -98 38 -41 102 -129 110
-151 6 -16 2 -18 -31 -12 -21 4 -98 23 -172 43 -105 29 -135 42 -141 58 -4 11
-6 21 -5 23 2 2 33 -6 70 -17 87 -27 102 -25 40 5 l-50 24 75 -6 c47 -3 71 -2
65 4 -5 5 -54 33 -107 61 -54 28 -122 66 -150 84 -29 19 -75 48 -103 65 -27
17 -64 44 -80 59 -29 27 -139 185 -185 268 -71 126 -95 174 -144 282 l-53 120
86 76 c92 82 91 81 91 69z m3068 -9 c-23 -52 -164 -216 -221 -257 -30 -22 -19
-6 41 54 53 54 82 91 79 101 -3 10 1 16 12 15 9 0 15 5 13 12 -1 8 2 11 7 8 5
-3 12 1 15 10 8 22 8 26 -4 19 -6 -4 -7 1 -3 11 4 11 8 13 11 6 6 -18 20 -14
27 8 3 11 11 20 17 20 5 0 8 -3 6 -7z m-96 -25 c-7 -7 -12 -8 -12 -2 0 14 12
26 19 19 2 -3 -1 -11 -7 -17z m165 0 c-3 -8 -6 -5 -6 6 -1 11 2 17 5 13 3 -3
4 -12 1 -19z m-148 -374 c-23 -110 -55 -194 -74 -194 -7 0 -51 -36 -99 -81
-83 -78 -108 -111 -66 -89 29 16 24 4 -14 -33 -19 -17 -41 -48 -49 -67 -16
-40 -117 -179 -117 -162 0 6 5 14 10 17 6 4 8 15 5 25 -3 10 -1 21 5 25 5 3
10 11 10 18 0 8 -3 8 -12 -1 -23 -23 -26 -12 -8 26 46 89 120 255 117 259 -6
5 -18 -12 -80 -117 -64 -109 -86 -140 -87 -123 0 7 -6 10 -14 7 -8 -3 -24 5
-35 18 -19 19 -23 21 -32 8 -8 -11 -9 -9 -4 10 l6 25 -21 -24 c-11 -13 -23
-21 -26 -18 -5 5 15 47 27 57 3 3 12 30 19 60 16 65 30 84 90 117 234 132 308
182 385 258 44 45 81 80 82 80 2 -1 -7 -46 -18 -101z m1396 76 c11 -17 -5 -32
-21 -19 -7 6 -11 15 -8 20 7 12 21 11 29 -1z m-4405 -20 c0 -5 -7 -7 -15 -4
-8 4 -12 10 -9 15 6 11 24 2 24 -11z m2083 14 c-7 -3 -9 -12 -6 -20 3 -8 0
-14 -5 -14 -6 0 -10 -8 -10 -17 2 -21 -34 -80 -110 -181 -30 -40 -52 -75 -49
-78 3 -3 38 32 78 78 99 112 119 131 138 133 9 0 22 5 30 9 10 7 11 3 6 -15
-13 -42 -33 -74 -80 -133 -54 -65 -52 -86 2 -35 20 19 33 27 30 19 -23 -61
-79 -184 -92 -204 -9 -13 -12 -27 -7 -30 5 -3 28 22 52 54 24 33 45 60 47 60
8 0 -10 -46 -24 -62 -9 -10 -13 -25 -9 -35 4 -9 4 -14 1 -11 -4 4 -21 -9 -37
-28 -37 -42 -198 -150 -290 -194 -37 -18 -65 -36 -63 -40 2 -4 26 -3 52 1 26
4 59 8 73 8 21 0 19 -3 -14 -18 -24 -10 -35 -20 -29 -24 6 -4 22 -3 35 3 13 5
64 16 114 24 50 9 100 18 110 21 19 6 19 6 0 -5 -52 -34 -499 -170 -513 -157
-8 8 48 97 69 110 10 7 56 61 101 122 45 60 117 144 160 186 42 42 77 79 77
82 0 4 -19 -5 -42 -20 -55 -35 -178 -153 -281 -271 -45 -52 -83 -89 -85 -83
-2 6 -11 11 -19 11 -14 0 -14 3 2 20 10 11 22 17 28 13 6 -3 7 -1 3 6 -10 15
58 96 179 215 49 49 80 83 68 77 -56 -29 -180 -133 -303 -256 -112 -111 -139
-133 -158 -128 -39 10 -30 22 80 114 37 30 77 61 90 70 12 10 19 21 15 25 -4
5 -11 4 -15 -1 -11 -16 -39 -17 -45 -2 -3 8 7 25 21 39 25 23 284 217 328 245
17 11 16 12 -11 7 -25 -4 -4 20 134 155 90 89 169 161 175 160 7 0 7 -2 -1 -5z
m-2063 -55 c0 -6 -4 -7 -10 -4 -5 3 -10 11 -10 16 0 6 5 7 10 4 6 -3 10 -11
10 -16z m-593 -43 c48 -40 133 -90 280 -166 132 -67 143 -75 154 -109 16 -49
92 -201 133 -264 18 -29 49 -68 69 -89 35 -34 182 -113 255 -137 18 -6 50 -23
70 -39 20 -16 75 -55 121 -86 47 -31 79 -56 72 -56 -15 0 -184 80 -191 90 -3
4 -15 10 -26 14 -12 4 -58 29 -102 55 -138 84 -159 79 -57 -13 81 -73 77 -86
-27 -74 -40 4 -82 12 -93 17 -11 4 -77 21 -148 36 -88 20 -137 36 -160 53 -29
21 -29 23 -7 17 28 -9 31 -9 80 -6 33 3 34 3 10 12 -21 7 -20 8 10 4 93 -12
170 -17 170 -12 0 4 -26 20 -58 36 -59 30 -96 61 -73 61 7 0 37 -11 67 -25 80
-36 85 -31 23 24 -31 28 -64 68 -74 93 -11 23 -28 52 -37 62 -10 11 -18 29
-18 40 0 16 -3 17 -12 8 -30 -30 -66 2 -124 107 -72 129 -108 164 -53 51 50
-104 90 -211 83 -222 -4 -6 -2 -8 3 -5 16 10 24 -20 9 -32 -21 -18 -38 -4 -81
62 -22 34 -66 92 -98 130 -67 77 -62 87 9 22 48 -43 64 -53 64 -37 0 10 -57
70 -85 88 -13 8 -29 14 -37 12 -18 -4 -138 62 -138 76 0 7 5 17 11 23 16 16 3
43 -21 43 -18 0 -20 6 -20 80 0 44 4 80 9 80 5 0 22 -11 38 -24z m3953 -170
c0 -2 -24 -16 -52 -31 -78 -40 -148 -101 -189 -164 -20 -31 -72 -126 -114
-211 -75 -150 -137 -250 -156 -250 -18 0 -24 5 -21 18 4 18 -39 31 -116 34
-69 3 -69 3 -42 19 14 9 36 20 48 23 17 6 21 4 16 -8 -3 -9 -2 -16 4 -16 17 0
89 103 143 205 82 155 220 353 248 355 3 1 29 7 56 15 45 12 175 21 175 11z
m-4069 -199 c1 -7 1 -16 0 -20 -1 -5 2 -6 7 -3 5 3 17 -5 27 -17 10 -12 25
-30 33 -40 14 -16 14 -17 0 -12 -9 4 -19 13 -22 21 -3 8 -13 14 -21 14 -9 0
-13 -5 -10 -10 4 -6 10 -8 14 -5 10 6 41 -72 41 -103 0 -12 -5 -22 -11 -22 -6
0 -9 7 -5 15 3 8 1 15 -5 15 -6 0 -8 7 -5 16 3 8 2 13 -3 10 -11 -7 -41 37
-41 59 0 8 -4 15 -9 15 -9 0 0 -48 14 -70 3 -5 4 -10 1 -10 -3 0 -13 14 -21
30 -28 53 -66 94 -132 143 -24 17 -41 32 -40 34 8 8 72 -33 115 -73 25 -24 48
-44 49 -44 2 0 3 7 3 15 0 8 -3 14 -7 14 -19 -3 -22 3 -13 26 7 19 5 27 -8 37
-10 7 -22 20 -27 28 -5 8 10 0 33 -18 23 -19 43 -39 43 -45z m3106 13 c-6 -16
-15 -30 -19 -30 -5 0 -2 14 7 30 9 17 17 30 19 30 3 0 -1 -13 -7 -30z m-3163
-9 c-2 -3 -12 3 -22 13 -16 17 -16 18 5 5 12 -7 20 -15 17 -18z m693 -3 c-3
-8 -6 -5 -6 6 -1 11 2 17 5 13 3 -3 4 -12 1 -19z m39 -43 c3 -14 12 -29 20
-33 8 -4 16 -30 19 -57 l6 -50 -36 73 c-37 78 -41 92 -25 92 5 0 12 -11 16
-25z m-576 -93 c0 -15 -2 -15 -10 -2 -13 20 -13 33 0 25 6 -3 10 -14 10 -23z
m2980 -27 c-10 -12 -9 -16 4 -21 9 -3 13 -11 9 -17 -4 -6 2 -8 15 -5 46 12 10
-28 -80 -90 -78 -54 -67 -63 22 -17 29 15 30 15 30 -8 0 -16 -11 -30 -37 -46
l-38 -22 60 7 c92 12 201 8 211 -7 8 -14 -54 -39 -164 -65 -59 -14 -123 -29
-142 -34 -19 -5 -75 -11 -125 -14 l-89 -6 62 63 c95 96 81 103 -52 27 -86 -50
-157 -75 -142 -52 4 6 14 8 23 5 11 -4 14 -3 9 5 -4 7 -2 12 5 12 7 0 20 6 28
14 9 8 71 42 138 75 107 54 128 69 180 129 33 37 63 76 67 87 6 13 10 16 13 7
3 -7 -1 -19 -7 -27z m86 -1 c-4 -9 -9 -15 -11 -12 -3 3 -3 13 1 22 4 9 9 15
11 12 3 -3 3 -13 -1 -22z m-3126 -32 c0 -13 -3 -12 -15 4 -19 25 -19 40 0 24
8 -7 15 -20 15 -28z m157 -29 c27 -38 58 -81 68 -96 10 -16 43 -41 74 -57 l56
-29 -78 -1 c-59 0 -79 -4 -83 -15 -4 -8 -12 -15 -19 -15 -7 0 -16 -6 -19 -12
-8 -20 -50 36 -98 127 -22 44 -46 83 -52 87 -8 5 -7 11 2 20 8 8 12 8 12 1 0
-6 12 -26 27 -43 18 -22 32 -30 46 -26 14 3 28 -3 44 -20 13 -14 23 -21 23
-16 0 9 -22 60 -41 95 -19 35 -28 67 -20 67 4 0 31 -30 58 -67z m3986 -63 l28
-10 -59 -112 c-104 -197 -184 -328 -202 -328 -5 0 -10 3 -10 6 0 6 40 65 50
74 12 11 30 62 25 71 -3 5 1 6 9 3 12 -5 16 1 16 26 0 17 4 29 9 25 15 -9 33
32 28 63 -2 15 -2 21 0 15 8 -23 21 -14 45 33 46 90 51 99 60 105 13 9 -18 31
-39 27 -20 -4 -48 -51 -33 -56 6 -2 10 -8 10 -14 0 -6 -6 -8 -14 -5 -16 6 -46
-32 -46 -58 0 -8 -4 -15 -9 -15 -4 0 -24 -24 -44 -52 -41 -62 -58 -84 -111
-141 -21 -23 -29 -28 -17 -12 70 95 86 115 93 115 4 0 8 4 8 9 0 6 24 49 53
98 30 48 62 105 71 125 14 30 21 35 34 28 10 -6 30 -14 45 -20z m-4563 10 c0
-5 -8 -10 -17 -10 -10 0 -27 -7 -37 -15 -16 -12 -17 -18 -8 -27 7 -7 12 -19
12 -27 -1 -9 -9 0 -20 19 l-18 35 31 16 c38 20 57 23 57 9z m1500 -26 c0 -2
-9 -4 -20 -4 -11 0 -20 4 -20 9 0 5 9 7 20 4 11 -3 20 -7 20 -9z m-1680 -161
c92 -196 274 -476 413 -633 98 -110 238 -247 302 -295 67 -49 265 -165 585
-342 217 -120 572 -318 770 -428 253 -142 352 -195 362 -195 9 0 174 90 533
290 116 65 289 160 385 213 288 156 707 394 779 442 79 53 269 242 377 375 84
105 203 280 265 393 48 87 129 255 129 268 0 15 50 10 56 -6 7 -17 -17 -74
-101 -240 -68 -135 -218 -367 -322 -495 -104 -130 -319 -341 -399 -393 -67
-43 -457 -265 -719 -409 -617 -339 -925 -508 -952 -521 l-31 -17 -169 94
c-796 440 -1479 829 -1573 895 -214 151 -524 535 -679 840 -84 165 -114 243
-99 253 30 19 44 4 88 -89z m180 32 c0 -8 -4 -15 -10 -15 -5 0 -10 7 -10 15 0
8 5 15 10 15 6 0 10 -7 10 -15z m120 -36 c0 -6 -4 -7 -10 -4 -5 3 -10 11 -10
16 0 6 5 7 10 4 6 -3 10 -11 10 -16z m4330 -24 c0 -8 -4 -15 -10 -15 -5 0 -7
7 -4 15 4 8 8 15 10 15 2 0 4 -7 4 -15z m-4400 -39 c0 -6 -7 -2 -15 8 -8 11
-15 25 -15 30 0 6 7 2 15 -8 8 -11 15 -25 15 -30z m1081 25 c22 -9 22 -10 -11
-11 -30 0 -32 -2 -17 -11 10 -6 55 -23 101 -39 45 -15 104 -39 131 -54 28 -14
57 -26 65 -27 8 -1 4 -4 -10 -9 -14 -4 -50 -5 -82 -2 -107 9 -152 -21 -48 -33
65 -8 82 -25 24 -25 -21 0 -33 -4 -29 -10 3 -5 0 -11 -7 -12 -7 0 7 -4 32 -8
45 -7 44 -7 -17 -8 -35 -1 -63 1 -63 6 0 4 -26 6 -57 4 -45 -2 -54 0 -40 8 9
6 22 8 27 5 12 -7 13 15 2 32 -4 7 -32 17 -62 24 -58 12 -260 87 -260 96 0 3
14 3 30 0 17 -4 30 -3 30 2 0 5 11 12 25 15 18 5 24 12 22 28 -3 35 36 50 119
44 39 -3 82 -10 95 -15z m2417 2 c2 -8 -6 -13 -21 -13 -13 0 -30 -7 -37 -15
-13 -15 -3 -17 108 -15 19 0 45 -9 59 -20 l25 -20 -28 -10 c-16 -6 -64 -27
-107 -46 -43 -19 -91 -34 -108 -34 -16 0 -61 -9 -99 -19 -78 -22 -107 -10 -40
16 60 24 32 33 -85 26 l-100 -5 55 36 c30 20 64 39 75 42 79 22 156 58 151 69
-7 18 16 23 88 22 38 -1 61 -7 64 -14z m-1657 -40 c27 -10 49 -21 49 -25 0 -5
4 -8 9 -8 5 0 36 -15 70 -34 65 -37 81 -39 112 -13 16 15 26 16 58 7 21 -5 57
-11 80 -12 26 -1 41 -6 41 -14 0 -10 12 -12 48 -8 42 6 45 5 32 -9 -8 -8 -47
-32 -87 -52 l-72 -37 -53 30 c-101 57 -133 75 -238 130 -135 71 -144 78 -49
45z m-1706 -14 c11 -17 -1 -21 -15 -4 -8 9 -8 15 -2 15 6 0 14 -5 17 -11z
m-111 -15 c3 -8 2 -12 -4 -9 -6 3 -10 10 -10 16 0 14 7 11 14 -7z m1544 -15
c2 -4 10 -5 18 -2 8 3 14 0 14 -6 0 -6 7 -11 16 -11 8 0 13 -4 10 -9 -4 -5 8
-12 25 -16 17 -4 33 -13 36 -21 2 -7 14 -16 26 -20 11 -3 30 -15 41 -25 11
-11 25 -19 30 -19 6 0 -2 12 -18 26 -30 27 -30 46 1 20 42 -34 306 -219 364
-255 73 -44 57 -48 199 44 103 66 212 115 242 107 20 -5 -2 -22 -192 -146 -58
-38 -122 -82 -142 -98 l-37 -29 -163 107 c-90 59 -193 128 -231 153 -84 57
-206 132 -272 167 -94 50 -98 55 -30 48 33 -4 61 -11 63 -15z m-1510 -45 c-4
-3 -12 5 -18 18 -12 22 -12 22 6 6 10 -10 15 -20 12 -24z m112 26 c0 -5 -2
-10 -4 -10 -3 0 -8 5 -11 10 -3 6 -1 10 4 10 6 0 11 -4 11 -10z m1525 -12 c19
-13 35 -30 35 -38 0 -11 -2 -12 -8 -2 -5 6 -23 23 -42 37 -42 31 -32 33 15 3z
m-1601 -78 c-6 -5 -24 21 -24 34 0 6 6 1 14 -10 8 -10 12 -21 10 -24z m4076
-5 c-7 -9 -15 -13 -18 -10 -3 2 1 11 8 20 7 9 15 13 18 10 3 -2 -1 -11 -8 -20z
m-4050 -25 c6 -11 8 -20 6 -20 -3 0 -10 9 -16 20 -6 11 -8 20 -6 20 3 0 10 -9
16 -20z m1530 -18 c-7 -3 -19 3 -28 13 -16 15 -15 16 12 4 15 -7 23 -15 16
-17z m50 -23 c0 -4 -7 -6 -15 -3 -8 4 -15 10 -15 15 0 4 7 6 15 3 8 -4 15 -10
15 -15z m2566 5 c-12 -32 -113 -167 -236 -317 -93 -114 -184 -209 -222 -233
-62 -40 -521 -295 -828 -462 -579 -314 -666 -361 -722 -388 l-56 -27 -204 110
c-214 116 -995 546 -1208 665 -208 116 -240 140 -317 235 -39 49 -90 108 -112
133 -70 76 -103 120 -92 120 6 0 11 -3 11 -7 0 -5 36 -46 80 -93 44 -46 80
-90 80 -96 0 -6 9 -14 19 -17 18 -4 19 1 17 123 -2 147 -14 140 103 65 90 -58
576 -335 851 -485 124 -67 324 -178 445 -245 121 -67 242 -134 269 -149 58
-31 56 -32 196 44 58 31 150 81 205 110 55 29 105 56 110 60 6 4 125 69 265
145 140 76 284 154 320 174 181 98 538 306 634 369 60 40 114 71 120 69 6 -2
0 -10 -14 -17 -32 -17 -51 -43 -40 -54 5 -5 6 -15 3 -22 -3 -8 -1 -14 4 -14 5
0 7 -21 4 -47 -3 -27 -5 -62 -3 -80 3 -30 4 -31 22 -16 10 9 16 21 13 26 -3 6
-1 7 6 3 10 -7 20 3 86 82 11 13 27 32 35 41 41 46 140 188 140 201 0 5 5 10
11 10 6 0 8 -7 5 -16z m-156 -4 c0 -5 -5 -10 -11 -10 -5 0 -7 5 -4 10 3 6 8
10 11 10 2 0 4 -4 4 -10z m-2416 -25 c13 -3 26 0 28 5 2 6 108 -60 235 -145
128 -85 235 -155 239 -155 3 0 47 29 97 63 108 75 290 187 303 187 5 0 4 -4
-3 -8 -17 -11 -5 -50 19 -58 19 -6 19 -6 1 -22 -10 -10 -52 -43 -94 -75 -95
-72 -202 -168 -195 -175 3 -2 45 22 93 55 105 72 203 128 202 116 0 -4 -27
-27 -61 -51 -65 -47 -72 -66 -11 -33 39 21 111 51 122 51 3 0 -9 -9 -26 -20
-40 -24 -42 -33 -7 -24 21 5 25 4 19 -6 -6 -10 -1 -12 19 -8 14 3 26 4 26 3 0
-2 -46 -29 -102 -61 -142 -80 -366 -234 -389 -266 -3 -5 -37 15 -75 44 -91 70
-287 191 -407 253 -53 28 -95 54 -94 59 6 19 46 25 62 10 9 -9 22 -13 30 -10
8 3 15 1 15 -4 0 -6 5 -10 11 -10 8 0 8 5 -1 15 -7 8 -18 15 -25 15 -7 0 -18
7 -25 15 -18 22 -11 20 84 -26 48 -23 89 -39 92 -36 3 3 -41 36 -99 74 -149
97 -146 95 -102 78 54 -21 180 -95 294 -172 52 -34 97 -60 100 -57 9 9 -97 93
-294 234 -57 41 -70 55 -70 78 -1 20 -6 28 -23 30 -12 2 -20 8 -17 13 4 5 0 9
-8 9 -8 0 -20 7 -28 16 -11 13 -9 15 14 10 15 -3 38 -8 51 -11z m2336 -45 c0
-5 -5 -10 -11 -10 -5 0 -7 5 -4 10 3 6 8 10 11 10 2 0 4 -4 4 -10z m-3812 -35
c-3 -3 -9 2 -12 12 -6 14 -5 15 5 6 7 -7 10 -15 7 -18z"/>
<path d="M4500 7930 c-56 -72 -74 -99 -68 -106 7 -7 31 18 80 82 54 71 43 93
-12 24z"/>
<path d="M5445 7720 c-3 -6 1 -7 9 -4 18 7 21 14 7 14 -6 0 -13 -4 -16 -10z"/>
<path d="M5512 7320 c0 -14 2 -19 5 -12 2 6 2 18 0 25 -3 6 -5 1 -5 -13z"/>
<path d="M4693 7163 c-23 -15 -33 -58 -12 -51 13 4 54 68 42 67 -4 0 -18 -7
-30 -16z"/>
<path d="M4527 7009 c-9 -75 -8 -151 2 -168 10 -15 27 104 22 159 -5 61 -18
65 -24 9z"/>
<path d="M5837 6223 c-39 -30 -46 -43 -23 -43 8 0 25 13 39 29 16 20 28 26 34
20 7 -7 12 -5 16 5 10 26 -25 19 -66 -11z"/>
<path d="M5852 6190 c-18 -30 -14 -36 8 -12 21 22 25 32 12 32 -4 0 -13 -9
-20 -20z"/>
<path d="M5772 6153 c8 -10 6 -13 -6 -13 -21 0 -21 -16 0 -24 23 -9 24 -8 24
14 0 10 8 24 18 29 14 9 11 10 -15 9 -25 -2 -30 -5 -21 -15z"/>
<path d="M5815 6140 c-3 -6 1 -7 9 -4 18 7 21 14 7 14 -6 0 -13 -4 -16 -10z"/>
<path d="M5780 6090 c0 -5 -12 -21 -27 -35 -15 -14 -22 -25 -16 -25 13 0 63
50 63 62 0 5 -4 8 -10 8 -5 0 -10 -4 -10 -10z"/>
<path d="M5710 6086 c0 -2 7 -7 16 -10 8 -3 12 -2 9 4 -6 10 -25 14 -25 6z"/>
<path d="M5655 6050 c-3 -5 -2 -10 4 -10 5 0 13 5 16 10 3 6 2 10 -4 10 -5 0
-13 -4 -16 -10z"/>
<path d="M5647 5953 c-10 -10 -8 -33 2 -33 6 0 9 9 8 20 -1 23 -1 22 -10 13z"/>
<path d="M5615 5880 c4 -6 11 -8 16 -5 14 9 11 15 -7 15 -8 0 -12 -5 -9 -10z"/>
<path d="M4710 6459 c0 -5 5 -7 10 -4 6 3 10 8 10 11 0 2 -4 4 -10 4 -5 0 -10
-5 -10 -11z"/>
<path d="M7930 5560 c0 -5 7 -10 15 -10 8 0 15 5 15 10 0 6 -7 10 -15 10 -8 0
-15 -4 -15 -10z"/>
<path d="M7266 5534 c-17 -12 -17 -14 -4 -14 9 0 20 5 23 11 11 17 2 18 -19 3z"/>
<path d="M3185 5340 c3 -5 8 -10 11 -10 2 0 4 5 4 10 0 6 -5 10 -11 10 -5 0
-7 -4 -4 -10z"/>
<path d="M7109 5232 c-15 -13 -19 -21 -11 -26 7 -4 12 -2 12 4 0 6 5 8 11 5 6
-4 8 -14 4 -22 -4 -13 -3 -14 10 -3 9 7 13 21 10 31 -4 11 0 19 12 22 15 4 14
5 -3 6 -12 0 -32 -7 -45 -17z"/>
<path d="M7070 5179 c0 -5 5 -7 10 -4 6 3 10 8 10 11 0 2 -4 4 -10 4 -5 0 -10
-5 -10 -11z"/>
<path d="M4225 4560 c19 -70 123 -237 137 -220 2 3 -29 59 -70 125 -40 66 -71
109 -67 95z"/>
<path d="M4100 4271 c0 -27 131 -163 144 -150 2 2 -29 39 -70 81 -41 43 -74
74 -74 69z"/>
<path d="M6300 3991 c0 -5 5 -13 10 -16 6 -3 10 -2 10 4 0 5 -4 13 -10 16 -5
3 -10 2 -10 -4z"/>
<path d="M3790 3662 c0 -12 23 -32 37 -32 7 0 13 4 13 10 0 5 -7 7 -15 4 -9
-4 -15 0 -15 10 0 9 -4 16 -10 16 -5 0 -10 -4 -10 -8z"/>
<path d="M3395 3240 c3 -5 8 -10 11 -10 2 0 4 5 4 10 0 6 -5 10 -11 10 -5 0
-7 -4 -4 -10z"/>
<path d="M6555 2960 c-22 -42 -19 -67 10 -86 14 -9 27 -15 28 -13 36 64 36 61
18 95 -20 41 -36 43 -56 4z"/>
<path d="M4642 3284 c10 -10 20 -16 22 -13 3 3 -5 11 -17 18 -21 13 -21 12 -5
-5z"/>
</g>
</svg>
